# xmcd
#
# Track frame offsets:
# 150
# 10124
# 31232
# 41912
# 53127
# 64949
# 80110
# 83974
# 95396
# 107317
# 121000
# 133244
# 144532
# 160348
# 172401
# 183211
#
# Disc length: 2629 seconds
#
# Revision: 0
# Processed by: cddbd v1.5.2PL0 Copyright (c) Steve Scherf et al.
# Submitted via: Audion 3.0.2 (http://www.panic.com/audion/)
#
DISCID=d80a4310
DTITLE=variété - Année 1955
DYEAR=1900
DGENRE=
TTITLE0=rock arround the clock
TTITLE1=just a gigolo
TTITLE2=maybellene
TTITLE3=bo diddley
TTITLE4=sixteen tons
TTITLE5=guitar boogie
TTITLE6=hearrtbreak hotel
TTITLE7=shake rattle and roll
TTITLE8=route nationale 7
TTITLE9=chanson pou l'auvergnat
TTITLE10=si tu t'imagine
TTITLE11=l'enfant de la balle
TTITLE12=le danseur de charleston
TTITLE13=le piano du pauvre
TTITLE14=les lavandières du portugal
TTITLE15=le deserteur
EXTD=
EXTT0=
EXTT1=
EXTT2=
EXTT3=
EXTT4=
EXTT5=
EXTT6=
EXTT7=
EXTT8=
EXTT9=
EXTT10=
EXTT11=
EXTT12=
EXTT13=
EXTT14=
EXTT15=
PLAYORDER=
